<svg width="18" height="19" viewBox="0 0 18 19" fill="none" xmlns="http://www.w3.org/2000/svg">
<path d="M7.99984 19C9.10359 19 9.9989 18.1047 9.9989 17H6.00078C6.00078 18.1047 6.89609 19 7.99984 19ZM14.7308 14.3216C14.127 13.6728 12.9973 12.6969 12.9973 9.5C12.9973 7.07188 11.2948 5.12812 8.99921 4.65125V4C8.99921 3.44781 8.55171 3 7.99984 3C7.44796 3 7.00046 3.44781 7.00046 4V4.65125C4.70484 5.12812 3.00234 7.07188 3.00234 9.5C3.00234 12.6969 1.87265 13.6728 1.2689 14.3216C1.0814 14.5231 0.998276 14.7641 0.999839 15C1.00328 15.5125 1.40546 16 2.00296 16H13.9967C14.5942 16 14.9967 15.5125 14.9998 15C15.0014 14.7641 14.9183 14.5228 14.7308 14.3216Z" fill="#898989"/>
<ellipse cx="12.9998" cy="5" rx="3" ry="3" fill="#CE4848" stroke="#DDDDDF" stroke-width="1.5"/>
</svg>
